<svg width="445" height="108" viewBox="0 0 445 108" fill="none" xmlns="http://www.w3.org/2000/svg">
<path d="M256 54L176.5 100.765L176.5 7.23463L256 54Z" fill="black"/>
<path d="M249 54L180 94.7032L180 13.2968L249 54Z" fill="white"/>
<rect x="253" y="7" width="4" height="94" fill="black"/>
<rect x="249" y="52" width="70" height="4" fill="black"/>
<rect x="110" y="52" width="70" height="4" fill="black"/>
<path d="M343.098 50.5469H339.987C339.93 50.1444 339.814 49.7869 339.639 49.4744C339.464 49.1572 339.239 48.8873 338.964 48.6648C338.69 48.4422 338.373 48.2718 338.013 48.1534C337.658 48.035 337.272 47.9759 336.855 47.9759C336.102 47.9759 335.446 48.1629 334.888 48.5369C334.329 48.9062 333.896 49.446 333.588 50.1562C333.28 50.8617 333.126 51.7187 333.126 52.7273C333.126 53.7642 333.28 54.6354 333.588 55.3409C333.901 56.0464 334.336 56.5791 334.895 56.9389C335.454 57.2988 336.1 57.4787 336.834 57.4787C337.246 57.4787 337.627 57.4242 337.977 57.3153C338.332 57.2064 338.647 57.0478 338.922 56.8395C339.196 56.6264 339.424 56.3684 339.604 56.0653C339.788 55.7623 339.916 55.4167 339.987 55.0284L343.098 55.0426C343.018 55.7102 342.816 56.3542 342.494 56.9744C342.177 57.59 341.749 58.1416 341.209 58.6293C340.674 59.1122 340.035 59.4957 339.291 59.7798C338.553 60.0592 337.717 60.1989 336.784 60.1989C335.487 60.1989 334.327 59.9053 333.304 59.3182C332.286 58.7311 331.481 57.8812 330.889 56.7685C330.302 55.6558 330.009 54.3087 330.009 52.7273C330.009 51.1411 330.307 49.7917 330.903 48.679C331.5 47.5663 332.31 46.7187 333.332 46.1364C334.355 45.5492 335.506 45.2557 336.784 45.2557C337.627 45.2557 338.408 45.3741 339.128 45.6108C339.852 45.8475 340.494 46.1932 341.053 46.6477C341.611 47.0975 342.066 47.6491 342.416 48.3026C342.771 48.956 342.999 49.7041 343.098 50.5469ZM348.357 60.206C347.661 60.206 347.041 60.0852 346.496 59.8438C345.952 59.5975 345.521 59.2353 345.204 58.7571C344.891 58.2741 344.735 57.6728 344.735 56.9531C344.735 56.3471 344.846 55.8381 345.069 55.4261C345.291 55.0142 345.594 54.6828 345.978 54.4318C346.362 54.1809 346.797 53.9915 347.285 53.8636C347.777 53.7358 348.293 53.6458 348.833 53.5938C349.468 53.5275 349.979 53.4659 350.367 53.4091C350.755 53.3475 351.037 53.2576 351.212 53.1392C351.388 53.0208 351.475 52.8456 351.475 52.6136V52.571C351.475 52.1212 351.333 51.7732 351.049 51.527C350.77 51.2808 350.372 51.1577 349.856 51.1577C349.311 51.1577 348.878 51.2784 348.556 51.5199C348.234 51.7566 348.021 52.0549 347.917 52.4148L345.119 52.1875C345.261 51.5246 345.54 50.9517 345.957 50.4688C346.373 49.9811 346.911 49.607 347.569 49.3466C348.232 49.0814 348.999 48.9489 349.87 48.9489C350.476 48.9489 351.056 49.0199 351.61 49.1619C352.169 49.304 352.664 49.5241 353.094 49.8224C353.53 50.1207 353.873 50.5043 354.124 50.973C354.375 51.437 354.501 51.9934 354.501 52.642V60H351.631V58.4872H351.546C351.371 58.8281 351.137 59.1288 350.843 59.3892C350.549 59.6449 350.197 59.8461 349.785 59.9929C349.373 60.1349 348.897 60.206 348.357 60.206ZM349.224 58.1179C349.669 58.1179 350.062 58.0303 350.403 57.8551C350.744 57.6752 351.011 57.4337 351.205 57.1307C351.399 56.8277 351.496 56.4844 351.496 56.1009V54.9432C351.402 55.0047 351.272 55.0616 351.106 55.1136C350.945 55.161 350.763 55.206 350.559 55.2486C350.355 55.2865 350.152 55.322 349.948 55.3551C349.745 55.3835 349.56 55.4096 349.394 55.4332C349.039 55.4853 348.729 55.5682 348.464 55.6818C348.199 55.7955 347.993 55.9493 347.846 56.1435C347.699 56.3329 347.626 56.5696 347.626 56.8537C347.626 57.2656 347.775 57.5805 348.073 57.7983C348.376 58.0114 348.76 58.1179 349.224 58.1179ZM362.651 49.0909V51.3636H356.081V49.0909H362.651ZM357.572 46.4773H360.598V56.6477C360.598 56.9271 360.641 57.1449 360.726 57.3011C360.811 57.4527 360.929 57.5592 361.081 57.6207C361.237 57.6823 361.417 57.7131 361.621 57.7131C361.763 57.7131 361.905 57.7012 362.047 57.6776C362.189 57.6491 362.298 57.6278 362.374 57.6136L362.849 59.8651C362.698 59.9124 362.485 59.9669 362.21 60.0284C361.936 60.0947 361.602 60.1349 361.209 60.1491C360.48 60.1776 359.84 60.0805 359.291 59.858C358.747 59.6354 358.323 59.2898 358.02 58.821C357.717 58.3523 357.568 57.7604 357.572 57.0455V46.4773ZM367.881 53.6932V60H364.856V45.4545H367.796V51.0156H367.924C368.17 50.3717 368.568 49.8674 369.117 49.5028C369.666 49.1335 370.355 48.9489 371.184 48.9489C371.942 48.9489 372.602 49.1146 373.165 49.446C373.734 49.7727 374.174 50.2438 374.487 50.8594C374.804 51.4702 374.96 52.2017 374.955 53.054V60H371.93V53.5938C371.934 52.9214 371.764 52.3982 371.418 52.0241C371.077 51.6501 370.599 51.4631 369.984 51.4631C369.572 51.4631 369.207 51.5507 368.89 51.7259C368.577 51.901 368.331 52.1567 368.151 52.4929C367.976 52.8243 367.886 53.2244 367.881 53.6932ZM382.265 60.2131C381.162 60.2131 380.208 59.9787 379.403 59.5099C378.603 59.0365 377.985 58.3783 377.549 57.5355C377.114 56.688 376.896 55.7055 376.896 54.5881C376.896 53.4612 377.114 52.4763 377.549 51.6335C377.985 50.786 378.603 50.1278 379.403 49.6591C380.208 49.1856 381.162 48.9489 382.265 48.9489C383.368 48.9489 384.32 49.1856 385.12 49.6591C385.925 50.1278 386.546 50.786 386.981 51.6335C387.417 52.4763 387.635 53.4612 387.635 54.5881C387.635 55.7055 387.417 56.688 386.981 57.5355C386.546 58.3783 385.925 59.0365 385.12 59.5099C384.32 59.9787 383.368 60.2131 382.265 60.2131ZM382.279 57.8693C382.781 57.8693 383.2 57.7273 383.537 57.4432C383.873 57.1544 384.126 56.7614 384.297 56.2642C384.472 55.767 384.559 55.2012 384.559 54.5668C384.559 53.9323 384.472 53.3665 384.297 52.8693C384.126 52.3722 383.873 51.9792 383.537 51.6903C383.2 51.4015 382.781 51.2571 382.279 51.2571C381.773 51.2571 381.347 51.4015 381.001 51.6903C380.66 51.9792 380.402 52.3722 380.227 52.8693C380.056 53.3665 379.971 53.9323 379.971 54.5668C379.971 55.2012 380.056 55.767 380.227 56.2642C380.402 56.7614 380.66 57.1544 381.001 57.4432C381.347 57.7273 381.773 57.8693 382.279 57.8693ZM393.622 60.1776C392.793 60.1776 392.043 59.9645 391.37 59.5384C390.703 59.1075 390.172 58.4754 389.779 57.642C389.391 56.804 389.197 55.7765 389.197 54.5597C389.197 53.3097 389.398 52.2704 389.801 51.4418C390.203 50.6084 390.738 49.9858 391.406 49.5739C392.078 49.1572 392.815 48.9489 393.615 48.9489C394.225 48.9489 394.734 49.053 395.142 49.2614C395.554 49.465 395.885 49.7206 396.136 50.0284C396.392 50.3314 396.586 50.6297 396.718 50.9233H396.811V45.4545H399.829V60H396.846V58.2528H396.718C396.576 58.5559 396.375 58.8565 396.115 59.1548C395.859 59.4484 395.525 59.6922 395.113 59.8864C394.706 60.0805 394.209 60.1776 393.622 60.1776ZM394.581 57.7699C395.068 57.7699 395.48 57.6373 395.816 57.3722C396.157 57.1023 396.418 56.7259 396.598 56.2429C396.782 55.7599 396.875 55.1941 396.875 54.5455C396.875 53.8968 396.785 53.3333 396.605 52.8551C396.425 52.3769 396.164 52.0076 395.824 51.7472C395.483 51.4867 395.068 51.3565 394.581 51.3565C394.083 51.3565 393.664 51.4915 393.324 51.7614C392.983 52.0312 392.725 52.4053 392.549 52.8835C392.374 53.3617 392.287 53.9157 392.287 54.5455C392.287 55.1799 392.374 55.741 392.549 56.2287C392.729 56.7116 392.987 57.0904 393.324 57.3651C393.664 57.6349 394.083 57.7699 394.581 57.7699ZM407.288 60.2131C406.166 60.2131 405.2 59.9858 404.391 59.5312C403.586 59.072 402.965 58.4233 402.53 57.5852C402.094 56.7424 401.876 55.7457 401.876 54.5952C401.876 53.473 402.094 52.4882 402.53 51.6406C402.965 50.7931 403.579 50.1326 404.369 49.6591C405.165 49.1856 406.098 48.9489 407.168 48.9489C407.887 48.9489 408.557 49.0649 409.178 49.2969C409.803 49.5241 410.347 49.8674 410.811 50.3267C411.28 50.786 411.644 51.3636 411.905 52.0597C412.165 52.7509 412.295 53.5606 412.295 54.4886V55.3196H403.084V53.4446H409.447C409.447 53.009 409.353 52.6231 409.163 52.2869C408.974 51.9508 408.711 51.688 408.375 51.4986C408.044 51.3045 407.658 51.2074 407.217 51.2074C406.758 51.2074 406.351 51.3139 405.996 51.527C405.645 51.7353 405.371 52.017 405.172 52.3722C404.973 52.7225 404.871 53.1132 404.866 53.544V55.3267C404.866 55.8665 404.966 56.3329 405.165 56.7259C405.368 57.1188 405.655 57.4219 406.024 57.6349C406.393 57.848 406.831 57.9545 407.338 57.9545C407.674 57.9545 407.982 57.9072 408.261 57.8125C408.541 57.7178 408.78 57.5758 408.979 57.3864C409.178 57.197 409.329 56.965 409.433 56.6903L412.232 56.875C412.089 57.5473 411.798 58.1345 411.358 58.6364C410.922 59.1335 410.359 59.5218 409.668 59.8011C408.981 60.0758 408.188 60.2131 407.288 60.2131ZM419.566 54.169C419.566 52.4077 419.801 50.786 420.27 49.304C420.743 47.822 421.465 46.4489 422.436 45.1847H425.326C424.957 45.6534 424.614 46.2263 424.297 46.9034C423.979 47.5758 423.702 48.3144 423.466 49.1193C423.229 49.9242 423.044 50.7576 422.912 51.6193C422.779 52.4763 422.713 53.3262 422.713 54.169C422.713 55.2912 422.826 56.4252 423.054 57.571C423.286 58.7121 423.598 59.7727 423.991 60.7528C424.389 61.733 424.834 62.5355 425.326 63.1605H422.436C421.465 61.8963 420.743 60.5232 420.27 59.0412C419.801 57.5592 419.566 55.9351 419.566 54.169ZM433.879 52.8267V55.2273H427.246V52.8267H433.879ZM441.557 54.169C441.557 55.9351 441.32 57.5592 440.847 59.0412C440.378 60.5232 439.658 61.8963 438.688 63.1605H435.797C436.166 62.6918 436.509 62.1188 436.827 61.4418C437.144 60.7647 437.421 60.026 437.658 59.2259C437.894 58.4209 438.079 57.5876 438.212 56.7259C438.344 55.8641 438.411 55.0118 438.411 54.169C438.411 53.0469 438.295 51.9152 438.062 50.7741C437.835 49.6283 437.523 48.5677 437.125 47.5923C436.732 46.6122 436.289 45.8097 435.797 45.1847H438.688C439.658 46.4489 440.378 47.822 440.847 49.304C441.32 50.786 441.557 52.4077 441.557 54.169Z" fill="black"/>
<path d="M3.77131 60H0.475852L5.49716 45.4545H9.46023L14.4744 60H11.179L7.53551 48.7784H7.42188L3.77131 60ZM3.56534 54.2827H11.3494V56.6832H3.56534V54.2827ZM19.1939 53.6932V60H16.1683V49.0909H19.0518V51.0156H19.1797C19.4212 50.3812 19.826 49.8793 20.3942 49.5099C20.9624 49.1359 21.6513 48.9489 22.4609 48.9489C23.2185 48.9489 23.879 49.1146 24.4425 49.446C25.0059 49.7775 25.4439 50.2509 25.7564 50.8665C26.0689 51.4773 26.2251 52.2064 26.2251 53.054V60H23.1996V53.5938C23.2043 52.9261 23.0339 52.4053 22.6882 52.0312C22.3426 51.6525 21.8667 51.4631 21.2607 51.4631C20.8535 51.4631 20.4936 51.5507 20.1811 51.7259C19.8733 51.901 19.6319 52.1567 19.4567 52.4929C19.2862 52.8243 19.1986 53.2244 19.1939 53.6932ZM33.5387 60.2131C32.4355 60.2131 31.4814 59.9787 30.6765 59.5099C29.8763 59.0365 29.2584 58.3783 28.8228 57.5355C28.3872 56.688 28.1694 55.7055 28.1694 54.5881C28.1694 53.4612 28.3872 52.4763 28.8228 51.6335C29.2584 50.786 29.8763 50.1278 30.6765 49.6591C31.4814 49.1856 32.4355 48.9489 33.5387 48.9489C34.6419 48.9489 35.5936 49.1856 36.3938 49.6591C37.1987 50.1278 37.819 50.786 38.2546 51.6335C38.6902 52.4763 38.908 53.4612 38.908 54.5881C38.908 55.7055 38.6902 56.688 38.2546 57.5355C37.819 58.3783 37.1987 59.0365 36.3938 59.5099C35.5936 59.9787 34.6419 60.2131 33.5387 60.2131ZM33.5529 57.8693C34.0548 57.8693 34.4738 57.7273 34.81 57.4432C35.1462 57.1544 35.3995 56.7614 35.57 56.2642C35.7451 55.767 35.8327 55.2012 35.8327 54.5668C35.8327 53.9323 35.7451 53.3665 35.57 52.8693C35.3995 52.3722 35.1462 51.9792 34.81 51.6903C34.4738 51.4015 34.0548 51.2571 33.5529 51.2571C33.0463 51.2571 32.6201 51.4015 32.2745 51.6903C31.9336 51.9792 31.6755 52.3722 31.5004 52.8693C31.3299 53.3665 31.2447 53.9323 31.2447 54.5668C31.2447 55.2012 31.3299 55.767 31.5004 56.2642C31.6755 56.7614 31.9336 57.1544 32.2745 57.4432C32.6201 57.7273 33.0463 57.8693 33.5529 57.8693ZM44.8952 60.1776C44.0666 60.1776 43.3162 59.9645 42.6438 59.5384C41.9762 59.1075 41.4459 58.4754 41.0529 57.642C40.6647 56.804 40.4705 55.7765 40.4705 54.5597C40.4705 53.3097 40.6718 52.2704 41.0742 51.4418C41.4767 50.6084 42.0117 49.9858 42.6793 49.5739C43.3517 49.1572 44.0879 48.9489 44.8881 48.9489C45.4989 48.9489 46.0079 49.053 46.4151 49.2614C46.8271 49.465 47.1585 49.7206 47.4094 50.0284C47.6651 50.3314 47.8593 50.6297 47.9918 50.9233H48.0842V45.4545H51.1026V60H48.1197V58.2528H47.9918C47.8498 58.5559 47.6486 58.8565 47.3881 59.1548C47.1325 59.4484 46.7987 59.6922 46.3867 59.8864C45.9795 60.0805 45.4824 60.1776 44.8952 60.1776ZM45.854 57.7699C46.3417 57.7699 46.7537 57.6373 47.0898 57.3722C47.4308 57.1023 47.6912 56.7259 47.8711 56.2429C48.0558 55.7599 48.1481 55.1941 48.1481 54.5455C48.1481 53.8968 48.0581 53.3333 47.8782 52.8551C47.6983 52.3769 47.4379 52.0076 47.0969 51.7472C46.756 51.4867 46.3417 51.3565 45.854 51.3565C45.3569 51.3565 44.9379 51.4915 44.5969 51.7614C44.256 52.0312 43.998 52.4053 43.8228 52.8835C43.6476 53.3617 43.56 53.9157 43.56 54.5455C43.56 55.1799 43.6476 55.741 43.8228 56.2287C44.0027 56.7116 44.2608 57.0904 44.5969 57.3651C44.9379 57.6349 45.3569 57.7699 45.854 57.7699ZM58.5618 60.2131C57.4396 60.2131 56.4737 59.9858 55.6641 59.5312C54.8591 59.072 54.2389 58.4233 53.8033 57.5852C53.3677 56.7424 53.1499 55.7457 53.1499 54.5952C53.1499 53.473 53.3677 52.4882 53.8033 51.6406C54.2389 50.7931 54.852 50.1326 55.6428 49.6591C56.4382 49.1856 57.371 48.9489 58.4411 48.9489C59.1607 48.9489 59.8307 49.0649 60.451 49.2969C61.076 49.5241 61.6205 49.8674 62.0845 50.3267C62.5533 50.786 62.9179 51.3636 63.1783 52.0597C63.4387 52.7509 63.5689 53.5606 63.5689 54.4886V55.3196H54.3572V53.4446H60.7209C60.7209 53.009 60.6262 52.6231 60.4368 52.2869C60.2474 51.9508 59.9846 51.688 59.6484 51.4986C59.317 51.3045 58.9311 51.2074 58.4908 51.2074C58.0315 51.2074 57.6243 51.3139 57.2692 51.527C56.9188 51.7353 56.6442 52.017 56.4453 52.3722C56.2464 52.7225 56.1446 53.1132 56.1399 53.544V55.3267C56.1399 55.8665 56.2393 56.3329 56.4382 56.7259C56.6418 57.1188 56.9283 57.4219 57.2976 57.6349C57.6669 57.848 58.1049 57.9545 58.6115 57.9545C58.9477 57.9545 59.2554 57.9072 59.5348 57.8125C59.8142 57.7178 60.0533 57.5758 60.2521 57.3864C60.451 57.197 60.6025 56.965 60.7067 56.6903L63.505 56.875C63.3629 57.5473 63.0717 58.1345 62.6314 58.6364C62.1958 59.1335 61.6323 59.5218 60.9411 59.8011C60.2545 60.0758 59.4614 60.2131 58.5618 60.2131ZM70.8398 54.169C70.8398 52.4077 71.0742 50.786 71.543 49.304C72.0165 47.822 72.7385 46.4489 73.7092 45.1847H76.5998C76.2305 45.6534 75.8872 46.2263 75.57 46.9034C75.2527 47.5758 74.9757 48.3144 74.739 49.1193C74.5022 49.9242 74.3176 50.7576 74.185 51.6193C74.0524 52.4763 73.9862 53.3262 73.9862 54.169C73.9862 55.2912 74.0998 56.4252 74.3271 57.571C74.5591 58.7121 74.8716 59.7727 75.2646 60.7528C75.6623 61.733 76.1074 62.5355 76.5998 63.1605H73.7092C72.7385 61.8963 72.0165 60.5232 71.543 59.0412C71.0742 57.5592 70.8398 55.9351 70.8398 54.169ZM82.674 59.2116V49.1548H85.2166V59.2116H82.674ZM78.9169 55.4545V52.9119H88.9737V55.4545H78.9169ZM97.049 54.169C97.049 55.9351 96.8123 57.5592 96.3388 59.0412C95.87 60.5232 95.1503 61.8963 94.1797 63.1605H91.2891C91.6584 62.6918 92.0017 62.1188 92.3189 61.4418C92.6361 60.7647 92.9131 60.026 93.1499 59.2259C93.3866 58.4209 93.5713 57.5876 93.7038 56.7259C93.8364 55.8641 93.9027 55.0118 93.9027 54.169C93.9027 53.0469 93.7867 51.9152 93.5547 50.7741C93.3274 49.6283 93.0149 48.5677 92.6172 47.5923C92.2242 46.6122 91.7815 45.8097 91.2891 45.1847H94.1797C95.1503 46.4489 95.87 47.822 96.3388 49.304C96.8123 50.786 97.049 52.4077 97.049 54.169Z" fill="black"/>
</svg>
