<svg width="269" height="230" xmlns="http://www.w3.org/2000/svg" xmlns:xlink="http://www.w3.org/1999/xlink" xml:space="preserve" overflow="hidden"><g transform="translate(-580 -238)"><g><g><g><path d="M205.99 292.945 216.847 292.945" stroke="#0000FF" stroke-width="0.906591" stroke-linecap="butt" stroke-linejoin="miter" stroke-miterlimit="10" stroke-opacity="1" fill="none" fill-rule="nonzero" transform="matrix(1.00493 0 0 -1 426.516 637.346)"/><path d="M205.99 265.804 216.847 265.804" stroke="#0000FF" stroke-width="0.906591" stroke-linecap="butt" stroke-linejoin="miter" stroke-miterlimit="10" stroke-opacity="1" fill="none" fill-rule="nonzero" transform="matrix(1.00493 0 0 -1 426.516 637.346)"/><path d="M211.419 298.373 211.419 287.517" stroke="#0000FF" stroke-width="0.906591" stroke-linecap="butt" stroke-linejoin="miter" stroke-miterlimit="10" stroke-opacity="1" fill="none" fill-rule="nonzero" transform="matrix(1.00493 0 0 -1 426.516 637.346)"/><path d="M211.419 252.234 211.419 257.662" stroke="#0000FF" stroke-width="0.906591" stroke-linecap="butt" stroke-linejoin="miter" stroke-miterlimit="10" stroke-opacity="1" fill="none" fill-rule="nonzero" transform="matrix(1.00493 0 0 -1 426.516 637.346)"/><path d="M211.419 306.515 211.419 301.087" stroke="#0000FF" stroke-width="0.906591" stroke-linecap="butt" stroke-linejoin="miter" stroke-miterlimit="10" stroke-opacity="1" fill="none" fill-rule="nonzero" transform="matrix(1.00493 0 0 -1 426.516 637.346)"/><path d="M226.772 294.728C235.251 286.248 235.251 272.501 226.772 264.021 218.292 255.542 204.545 255.542 196.065 264.021 187.586 272.501 187.586 286.248 196.065 294.728 204.545 303.207 218.292 303.207 226.772 294.728" stroke="#0000FF" stroke-width="0.906591" stroke-linecap="butt" stroke-linejoin="miter" stroke-miterlimit="10" stroke-opacity="1" fill="none" fill-rule="nonzero" transform="matrix(1.00493 0 0 -1 426.516 637.346)"/><text fill="#000000" fill-opacity="1" font-family="Geneva,Geneva_MSFontService,sans-serif" font-style="normal" font-variant="normal" font-weight="400" font-stretch="normal" font-size="16" text-anchor="start" direction="ltr" writing-mode="lr-tb" unicode-bidi="normal" text-decoration="none" transform="matrix(0.911063 0 0 0.906591 589.883 358)">V</text><text fill="#000000" fill-opacity="1" font-family="Geneva,Geneva_MSFontService,sans-serif" font-style="normal" font-variant="normal" font-weight="400" font-stretch="normal" font-size="16" text-anchor="start" direction="ltr" writing-mode="lr-tb" unicode-bidi="normal" text-decoration="none" transform="matrix(0.911063 0 0 0.906591 600.791 358)">i</text><text fill="#000000" fill-opacity="1" font-family="Geneva,Geneva_MSFontService,sans-serif" font-style="normal" font-variant="normal" font-weight="400" font-stretch="normal" font-size="16" text-anchor="start" direction="ltr" writing-mode="lr-tb" unicode-bidi="normal" text-decoration="none" transform="matrix(0.911063 0 0 0.906591 604.317 358)">n</text><text fill="#000000" fill-opacity="1" font-family="Geneva,Geneva_MSFontService,sans-serif" font-style="normal" font-variant="normal" font-weight="400" font-stretch="normal" font-size="11" text-anchor="start" direction="ltr" writing-mode="lr-tb" unicode-bidi="normal" text-decoration="none" transform="matrix(0.911063 0 0 0.906591 594.656 372)">9</text><text fill="#000000" fill-opacity="1" font-family="Geneva,Geneva_MSFontService,sans-serif" font-style="normal" font-variant="normal" font-weight="400" font-stretch="normal" font-size="11" text-anchor="start" direction="ltr" writing-mode="lr-tb" unicode-bidi="normal" text-decoration="none" transform="matrix(0.911063 0 0 0.906591 601.322 372)">V</text><path d="M271.128 349.94 265.7 349.94" stroke="#0000FF" stroke-width="0.906591" stroke-linecap="butt" stroke-linejoin="miter" stroke-miterlimit="10" stroke-opacity="1" fill="none" fill-rule="nonzero" transform="matrix(1.00493 0 0 -1 426.516 637.346)"/><path d="M276.556 360.797 271.128 349.94" stroke="#0000FF" stroke-width="0.906591" stroke-linecap="butt" stroke-linejoin="miter" stroke-miterlimit="10" stroke-opacity="1" fill="none" fill-rule="nonzero" transform="matrix(1.00493 0 0 -1 426.516 637.346)"/><path d="M287.413 339.084 276.556 360.797" stroke="#0000FF" stroke-width="0.906591" stroke-linecap="butt" stroke-linejoin="miter" stroke-miterlimit="10" stroke-opacity="1" fill="none" fill-rule="nonzero" transform="matrix(1.00493 0 0 -1 426.516 637.346)"/><path d="M298.269 360.797 287.413 339.084" stroke="#0000FF" stroke-width="0.906591" stroke-linecap="butt" stroke-linejoin="miter" stroke-miterlimit="10" stroke-opacity="1" fill="none" fill-rule="nonzero" transform="matrix(1.00493 0 0 -1 426.516 637.346)"/><path d="M309.125 339.084 298.269 360.797" stroke="#0000FF" stroke-width="0.906591" stroke-linecap="butt" stroke-linejoin="miter" stroke-miterlimit="10" stroke-opacity="1" fill="none" fill-rule="nonzero" transform="matrix(1.00493 0 0 -1 426.516 637.346)"/><path d="M319.982 349.94 314.554 349.94" stroke="#0000FF" stroke-width="0.906591" stroke-linecap="butt" stroke-linejoin="miter" stroke-miterlimit="10" stroke-opacity="1" fill="none" fill-rule="nonzero" transform="matrix(1.00493 0 0 -1 426.516 637.346)"/><path d="M314.554 349.94 309.125 339.084" stroke="#0000FF" stroke-width="0.906591" stroke-linecap="butt" stroke-linejoin="miter" stroke-miterlimit="10" stroke-opacity="1" fill="none" fill-rule="nonzero" transform="matrix(1.00493 0 0 -1 426.516 637.346)"/><text fill="#000000" fill-opacity="1" font-family="Geneva,Geneva_MSFontService,sans-serif" font-style="normal" font-variant="normal" font-weight="400" font-stretch="normal" font-size="16" text-anchor="start" direction="ltr" writing-mode="lr-tb" unicode-bidi="normal" text-decoration="none" transform="matrix(0.911063 0 0 0.906591 713.985 257)">R</text><text fill="#000000" fill-opacity="1" font-family="Geneva,Geneva_MSFontService,sans-serif" font-style="normal" font-variant="normal" font-weight="400" font-stretch="normal" font-size="16" text-anchor="start" direction="ltr" writing-mode="lr-tb" unicode-bidi="normal" text-decoration="none" transform="matrix(0.911063 0 0 0.906591 723.076 257)">1</text><text fill="#000000" fill-opacity="1" font-family="Geneva,Geneva_MSFontService,sans-serif" font-style="normal" font-variant="normal" font-weight="400" font-stretch="normal" font-size="11" text-anchor="start" direction="ltr" writing-mode="lr-tb" unicode-bidi="normal" text-decoration="none" transform="matrix(0.911063 0 0 0.906591 718.151 271)">5</text><path d="M374.263 301.087 374.263 306.515" stroke="#0000FF" stroke-width="0.906591" stroke-linecap="butt" stroke-linejoin="miter" stroke-miterlimit="10" stroke-opacity="1" fill="none" fill-rule="nonzero" transform="matrix(1.00493 0 0 -1 426.516 637.346)"/><path d="M385.12 295.659 374.263 301.087" stroke="#0000FF" stroke-width="0.906591" stroke-linecap="butt" stroke-linejoin="miter" stroke-miterlimit="10" stroke-opacity="1" fill="none" fill-rule="nonzero" transform="matrix(1.00493 0 0 -1 426.516 637.346)"/><path d="M363.407 284.803 385.12 295.659" stroke="#0000FF" stroke-width="0.906591" stroke-linecap="butt" stroke-linejoin="miter" stroke-miterlimit="10" stroke-opacity="1" fill="none" fill-rule="nonzero" transform="matrix(1.00493 0 0 -1 426.516 637.346)"/><path d="M385.12 273.946 363.407 284.803" stroke="#0000FF" stroke-width="0.906591" stroke-linecap="butt" stroke-linejoin="miter" stroke-miterlimit="10" stroke-opacity="1" fill="none" fill-rule="nonzero" transform="matrix(1.00493 0 0 -1 426.516 637.346)"/><path d="M363.407 263.09 385.12 273.946" stroke="#0000FF" stroke-width="0.906591" stroke-linecap="butt" stroke-linejoin="miter" stroke-miterlimit="10" stroke-opacity="1" fill="none" fill-rule="nonzero" transform="matrix(1.00493 0 0 -1 426.516 637.346)"/><path d="M374.263 252.234 374.263 257.662" stroke="#0000FF" stroke-width="0.906591" stroke-linecap="butt" stroke-linejoin="miter" stroke-miterlimit="10" stroke-opacity="1" fill="none" fill-rule="nonzero" transform="matrix(1.00493 0 0 -1 426.516 637.346)"/><path d="M374.263 257.662 363.407 263.09" stroke="#0000FF" stroke-width="0.906591" stroke-linecap="butt" stroke-linejoin="miter" stroke-miterlimit="10" stroke-opacity="1" fill="none" fill-rule="nonzero" transform="matrix(1.00493 0 0 -1 426.516 637.346)"/><text fill="#000000" fill-opacity="1" font-family="Geneva,Geneva_MSFontService,sans-serif" font-style="normal" font-variant="normal" font-weight="400" font-stretch="normal" font-size="16" text-anchor="start" direction="ltr" writing-mode="lr-tb" unicode-bidi="normal" text-decoration="none" transform="matrix(0.911063 0 0 0.906591 821.04 358)">R</text><text fill="#000000" fill-opacity="1" font-family="Geneva,Geneva_MSFontService,sans-serif" font-style="normal" font-variant="normal" font-weight="400" font-stretch="normal" font-size="16" text-anchor="start" direction="ltr" writing-mode="lr-tb" unicode-bidi="normal" text-decoration="none" transform="matrix(0.911063 0 0 0.906591 830.131 358)">2</text><text fill="#000000" fill-opacity="1" font-family="Geneva,Geneva_MSFontService,sans-serif" font-style="normal" font-variant="normal" font-weight="400" font-stretch="normal" font-size="11" text-anchor="start" direction="ltr" writing-mode="lr-tb" unicode-bidi="normal" text-decoration="none" transform="matrix(0.911063 0 0 0.906591 823.388 373)">1</text><text fill="#000000" fill-opacity="1" font-family="Geneva,Geneva_MSFontService,sans-serif" font-style="normal" font-variant="normal" font-weight="400" font-stretch="normal" font-size="11" text-anchor="start" direction="ltr" writing-mode="lr-tb" unicode-bidi="normal" text-decoration="none" transform="matrix(0.911063 0 0 0.906591 830.053 373)">0</text><path d="M277.914 187.096 296.912 187.096 287.413 177.596Z" stroke="#0000FF" stroke-width="0.906591" stroke-linecap="butt" stroke-linejoin="miter" stroke-miterlimit="10" stroke-opacity="1" fill="none" fill-rule="nonzero" transform="matrix(1.00493 0 0 -1 426.516 637.346)"/><path d="M265.7 349.94 211.419 349.94" stroke="#0000FF" stroke-width="0.906591" stroke-linecap="butt" stroke-linejoin="miter" stroke-miterlimit="10" stroke-opacity="1" fill="none" fill-rule="nonzero" transform="matrix(1.00493 0 0 -1 426.516 637.346)"/><path d="M374.263 349.94 319.982 349.94" stroke="#0000FF" stroke-width="0.906591" stroke-linecap="butt" stroke-linejoin="miter" stroke-miterlimit="10" stroke-opacity="1" fill="none" fill-rule="nonzero" transform="matrix(1.00493 0 0 -1 426.516 637.346)"/><path d="M211.419 306.515 211.419 349.94" stroke="#0000FF" stroke-width="0.906591" stroke-linecap="butt" stroke-linejoin="miter" stroke-miterlimit="10" stroke-opacity="1" fill="none" fill-rule="nonzero" transform="matrix(1.00493 0 0 -1 426.516 637.346)"/><path d="M374.263 306.515 374.263 349.94" stroke="#0000FF" stroke-width="0.906591" stroke-linecap="butt" stroke-linejoin="miter" stroke-miterlimit="10" stroke-opacity="1" fill="none" fill-rule="nonzero" transform="matrix(1.00493 0 0 -1 426.516 637.346)"/><path d="M211.419 208.808 211.419 252.234" stroke="#0000FF" stroke-width="0.906591" stroke-linecap="butt" stroke-linejoin="miter" stroke-miterlimit="10" stroke-opacity="1" fill="none" fill-rule="nonzero" transform="matrix(1.00493 0 0 -1 426.516 637.346)"/><path d="M287.413 208.808 211.419 208.808" stroke="#0000FF" stroke-width="0.906591" stroke-linecap="butt" stroke-linejoin="miter" stroke-miterlimit="10" stroke-opacity="1" fill="none" fill-rule="nonzero" transform="matrix(1.00493 0 0 -1 426.516 637.346)"/><path d="M374.263 208.808 374.263 252.234" stroke="#0000FF" stroke-width="0.906591" stroke-linecap="butt" stroke-linejoin="miter" stroke-miterlimit="10" stroke-opacity="1" fill="none" fill-rule="nonzero" transform="matrix(1.00493 0 0 -1 426.516 637.346)"/><path d="M374.263 208.808 287.413 208.808" stroke="#0000FF" stroke-width="0.906591" stroke-linecap="butt" stroke-linejoin="miter" stroke-miterlimit="10" stroke-opacity="1" fill="none" fill-rule="nonzero" transform="matrix(1.00493 0 0 -1 426.516 637.346)"/><path d="M287.413 187.096 287.413 208.808" stroke="#0000FF" stroke-width="0.906591" stroke-linecap="butt" stroke-linejoin="miter" stroke-miterlimit="10" stroke-opacity="1" fill="none" fill-rule="nonzero" transform="matrix(1.00493 0 0 -1 426.516 637.346)"/><path d="M349.295 287.009 356.08 287.009 356.08 293.794 349.295 293.794Z" fill="#0000FF" fill-rule="nonzero" fill-opacity="1" transform="matrix(1.00493 0 0 -1 360.919 718.939)"/></g></g></g></g></svg>