<svg width="818" height="692" xmlns="http://www.w3.org/2000/svg" xmlns:xlink="http://www.w3.org/1999/xlink" xml:space="preserve" overflow="hidden"><g transform="translate(-214 0)"><g><g><g><g><g><g><path d="M495.939 339.115C495.939 325.556 507.092 314.565 520.855 314.565 534.617 314.565 545.771 325.556 545.771 339.115 545.771 352.673 534.617 363.664 520.855 363.664 507.092 363.664 495.939 352.673 495.939 339.115Z" stroke="#0000FF" stroke-width="2.51908" stroke-linecap="butt" stroke-linejoin="miter" stroke-miterlimit="8" stroke-opacity="1" fill="none" fill-rule="evenodd" transform="matrix(1 0 0 1.00031 -182.924 -107.392)"/><g><g><path d="M914.64 1619.91 1148.24 1619.91M1148.24 1619.91 1070.37 1619.91M1265.04 1946.94 1265.04 2001.45M1265.04 1931.37 1265.04 1876.87M1233.89 1931.37 1296.18 1931.37M1233.89 1946.94 1296.18 1946.94" stroke="#0000FF" stroke-width="4.74122" stroke-linecap="butt" stroke-linejoin="miter" stroke-miterlimit="10" stroke-opacity="1" fill="none" fill-rule="nonzero" transform="matrix(1 0 0 1.00004 -420.547 -1528.02)"/><path d="M20.4279 7.96557 24.325 7.96557 24.325 7.75145C24.325 6.46669 23.8967 5.18192 23.0402 3.8543 22.1495 2.52028 20.8607 1.50121 19.3572 0.942165 17.6652 0.285938 15.8614-0.0340875 14.0468 1.54433e-07 10.2124-0.126024 6.51649 1.44004 3.93996 4.28257 1.28477 7.23753 0 11.5201 0 17.2588 0 22.9546 1.28477 27.2372 3.89715 30.1065 6.50949 33.0186 9.89276 34.4747 14.0897 34.4747 15.9071 34.4962 17.7112 34.1616 19.4001 33.4897 20.887 32.8977 22.147 31.8478 22.9974 30.4919 23.8113 29.3666 24.2733 28.0254 24.325 26.6376L24.325 26.5091 20.4707 26.5091 20.4707 26.7232C20.3801 28.4926 19.2298 30.0321 17.5586 30.6204 16.462 31.0175 15.2973 31.1923 14.1325 31.1343 11.1628 31.2705 8.35517 29.7764 6.8093 27.2372 5.07728 24.1896 4.23177 20.7186 4.36823 17.2159 4.36823 13.1047 5.22473 9.76426 6.8093 7.15188 8.37002 4.58465 11.2184 3.08637 14.2181 3.25475 16.4451 3.25475 18.0724 3.683 19.0146 4.62519 19.9008 5.4248 20.413 6.55795 20.4279 7.75145L20.4279 7.96557Z" fill="#000000" fill-rule="nonzero" fill-opacity="1" transform="matrix(1 0 0 -1.00004 891.203 405.436)"/><path d="M6.55234 0 6.55234 28.4363 0 25.8239 0 29.4213 6.55234 32.4191 10.4495 32.4191 10.4495 0 6.59515 0Z" fill="#000000" fill-rule="nonzero" fill-opacity="1" transform="matrix(1 0 0 -1.00004 923.491 404.453)"/><path d="M4.36823 0 4.36823 18.9575 0 17.2159 0 19.6142 4.36823 21.6127 6.96631 21.6127 6.96631 0 4.39678 0Z" fill="#000000" fill-rule="nonzero" fill-opacity="1" transform="matrix(1 0 0 -1.00004 893.482 444.06)"/><path d="M2.56954 0 0 0 4.16837 20.7562 6.7379 20.7562 4.96777 11.9055C4.79994 11.1165 4.70439 10.3137 4.68229 9.5073 4.65374 8.67935 4.8536 8.07977 5.33893 7.70861 5.82797 7.32821 6.43249 7.1267 7.05197 7.13762 7.90847 7.13762 8.7079 7.36603 9.4502 7.79426 10.2472 8.26725 10.9297 8.91073 11.4487 9.67861 12.1173 10.7287 12.5642 11.9042 12.7621 13.1332L14.2752 20.7562 16.8733 20.7562 13.7899 5.19617 11.2203 5.19617 11.7057 7.85136C10.8956 6.88927 9.93069 6.06909 8.85066 5.42458 8.06035 4.99976 7.1783 4.77436 6.28109 4.76794 5.33292 4.72484 4.40715 5.06427 3.71155 5.7101L2.56954 0Z" fill="#000000" fill-rule="nonzero" fill-opacity="1" transform="matrix(1 0 0 -1.00004 907.574 449.247)"/><path d="M0 0 0 21.6412 12.2196 21.6412 12.2196 19.243 2.79795 19.243 2.79795 11.8199 11.0205 11.8199 11.0205 9.59295 2.85504 9.59295 2.85504 0 0 0Z" fill="#000000" fill-rule="nonzero" fill-opacity="1" transform="matrix(1 0 0 -1.00004 927.192 444.06)"/><path d="M969.143 1783.43 953.574 1783.43M984.72 1752.28 969.143 1783.43M1015.86 1814.57 984.72 1752.28M1047.01 1752.28 1015.86 1814.57M1078.15 1814.57 1047.01 1752.28M1109.3 1783.43 1093.73 1783.43M1093.73 1783.43 1078.15 1814.57" stroke="#0000FF" stroke-width="4.74122" stroke-linecap="butt" stroke-linejoin="miter" stroke-miterlimit="10" stroke-opacity="1" fill="none" fill-rule="nonzero" transform="matrix(1 0 0 1.00004 -420.547 -1528.02)"/><path d="M4.23976 0 0 0 0 32.4619 10.0212 32.4619C12.5051 32.4619 14.3466 32.1193 15.5886 31.3912 16.8691 30.6609 17.9104 29.575 18.5864 28.265 19.8732 25.7732 19.9831 22.8376 18.8861 20.2566 18.3793 19.0974 17.6685 18.0385 16.7877 17.1303 15.6267 16.0082 14.2397 15.1468 12.7193 14.6036 13.2946 14.3046 13.8275 13.9302 14.3038 13.4901 15.2378 12.2587 16.0959 10.9716 16.8733 9.6358L22.0981 0 17.2159 0 12.7193 8.56515C11.6434 10.605 10.2069 12.4332 8.47949 13.9612L4.19692 13.9612 4.19692 0M4.19692 17.1731 8.35103 17.1731C10.064 17.1731 11.3916 17.4729 12.291 17.9868 13.1903 18.5435 13.9184 19.2716 14.4323 20.3422 14.989 21.37 15.2459 22.4835 15.2459 23.6398 15.296 25.5357 14.3548 27.3208 12.7621 28.3506 11.9912 28.9502 10.6208 29.25 8.6508 29.25L4.28257 29.25 4.28257 17.2588Z" fill="#000000" fill-rule="nonzero" fill-opacity="1" transform="matrix(1 0 0 -1.00004 594.5 173.969)"/><path d="M6.55234 0 6.55234 28.4363 0 25.8239 0 29.4213 6.55234 32.4191 10.4495 32.4191 10.4495 0 6.59515 0Z" fill="#000000" fill-rule="nonzero" fill-opacity="1" transform="matrix(1 0 0 -1.00004 623.718 173.969)"/><path d="M4.36823 0 4.36823 18.9575 0 17.2159 0 19.6142 4.36823 21.6127 6.96631 21.6127 6.96631 0 4.39678 0Z" fill="#000000" fill-rule="nonzero" fill-opacity="1" transform="matrix(1 0 0 -1.00004 599.865 209.957)"/><path d="M2.71229 0 0 0 0 22.4978 2.71229 22.4978 2.71229 8.16543 9.6215 15.5886 12.6193 15.5886 5.8814 8.30818 12.8477 0 9.6215 0 2.71229 8.16543 2.71229 0Z" fill="#000000" fill-rule="nonzero" fill-opacity="1" transform="matrix(1 0 0 -1.00004 616.72 209.957)"/><path d="M782.27 1915.8 813.42 1915.8M782.27 1993.66 813.42 1993.66M797.843 1900.22 797.843 1931.37M797.843 2032.6 797.843 2017.02M797.843 1876.87 797.843 1892.44M841.891 1910.68C866.212 1935.01 866.212 1974.45 841.891 1998.78 817.565 2023.1 778.121 2023.1 753.796 1998.78 729.471 1974.45 729.471 1935.01 753.796 1910.68 778.121 1886.36 817.565 1886.36 841.891 1910.68" stroke="#0000FF" stroke-width="4.74122" stroke-linecap="butt" stroke-linejoin="miter" stroke-miterlimit="10" stroke-opacity="1" fill="none" fill-rule="nonzero" transform="matrix(1 0 0 1.00004 -420.547 -1528.02)"/><path d="M25.9096 32.4619 29.8495 32.4619 16.5736 0 12.4194 0 0 32.4619 4.58234 32.4619 14.8605 5.26757 25.9096 32.4619Z" fill="#000000" fill-rule="nonzero" fill-opacity="1" transform="matrix(1 0 0 -1.00004 235.842 439.493)"/><path d="M0 23.34 3.8543 23.34 3.8543 0 0 0 0 23.34M0 28.5647 0 32.4191 3.8543 32.4191 3.8543 28.5647 0 28.5647Z" fill="#000000" fill-rule="nonzero" fill-opacity="1" transform="matrix(1 0 0 -1.00004 269.405 439.493)"/><path d="M3.8543 0 0 0 0 23.34 3.8543 23.34 3.8543 19.3144C4.71084 20.5992 5.52453 21.5413 6.25257 22.1409 7.74013 23.3796 9.62784 24.0342 11.563 23.9824 12.9118 24.0126 14.2482 23.7189 15.4601 23.1259 16.6089 22.5363 17.5502 21.6099 18.1581 20.4707 18.9208 18.7185 19.2583 16.8108 19.1431 14.9034L19.1431 0 15.2459 0 15.2459 13.1903C15.3095 14.6876 15.1654 16.1865 14.8177 17.6442 14.5438 18.4938 13.9637 19.2112 13.1903 19.657 12.4103 20.1566 11.5042 20.4239 10.578 20.4279 9.40537 20.4339 8.2575 20.0911 7.28038 19.4429 6.21903 18.7347 5.36246 17.7599 4.79649 16.6164 4.1091 14.9942 3.80149 13.2365 3.89715 11.4773L3.89715 0Z" fill="#000000" fill-rule="nonzero" fill-opacity="1" transform="matrix(1 0 0 -1.00004 279.47 439.493)"/><path d="M1237.78 2094.89 1292.29 2094.89 1265.04 2122.14ZM770.59 2094.89 825.097 2094.89 797.843 2122.14Z" stroke="#0000FF" stroke-width="4.74122" stroke-linecap="butt" stroke-linejoin="miter" stroke-miterlimit="10" stroke-opacity="1" fill="none" fill-rule="nonzero" transform="matrix(1 0 0 1.00004 -420.547 -1528.02)"/><path d="M4.23976 0 0 0 0 32.4619 10.0212 32.4619C12.5051 32.4619 14.3466 32.1193 15.5886 31.3912 16.8691 30.6609 17.9104 29.575 18.5864 28.265 19.8732 25.7732 19.9831 22.8376 18.8861 20.2566 18.3793 19.0974 17.6685 18.0385 16.7877 17.1303 15.6267 16.0082 14.2397 15.1468 12.7193 14.6036 13.2946 14.3046 13.8275 13.9302 14.3038 13.4901 15.2378 12.2587 16.0959 10.9716 16.8733 9.6358L22.0981 0 17.2159 0 12.7193 8.56515C11.6434 10.605 10.2069 12.4332 8.47949 13.9612L4.19692 13.9612 4.19692 0M4.19692 17.1731 8.35103 17.1731C10.064 17.1731 11.3916 17.4729 12.291 17.9868 13.1903 18.5435 13.9184 19.2716 14.4323 20.3422 14.989 21.37 15.2459 22.4835 15.2459 23.6398 15.296 25.5357 14.3548 27.3208 12.7621 28.3506 11.9912 28.9502 10.6208 29.25 8.6508 29.25L4.28257 29.25 4.28257 17.2588Z" fill="#0000C8" fill-rule="nonzero" fill-opacity="1" transform="matrix(1 0 0 -1.00004 489.38 85.1911)"/><path d="M20.4279 7.96557 24.325 7.96557 24.325 7.75145C24.325 6.46669 23.8967 5.18192 23.0402 3.8543 22.1495 2.52028 20.8607 1.50121 19.3572 0.942165 17.6652 0.285938 15.8614-0.0340875 14.0468 1.54433e-07 10.2124-0.126024 6.51649 1.44004 3.93996 4.28257 1.28477 7.23753 0 11.5201 0 17.2588 0 22.9546 1.28477 27.2372 3.89715 30.1065 6.50949 33.0186 9.89276 34.4747 14.0897 34.4747 15.9071 34.4962 17.7112 34.1616 19.4001 33.4897 20.887 32.8977 22.147 31.8478 22.9974 30.4919 23.8113 29.3666 24.2733 28.0254 24.325 26.6376L24.325 26.5091 20.4707 26.5091 20.4707 26.7232C20.3801 28.4926 19.2298 30.0321 17.5586 30.6204 16.462 31.0175 15.2973 31.1923 14.1325 31.1343 11.1628 31.2705 8.35517 29.7764 6.8093 27.2372 5.07728 24.1896 4.23177 20.7186 4.36823 17.2159 4.36823 13.1047 5.22473 9.76426 6.8093 7.15188 8.37002 4.58465 11.2184 3.08637 14.2181 3.25475 16.4451 3.25475 18.0724 3.683 19.0146 4.62519 19.9008 5.4248 20.413 6.55795 20.4279 7.75145L20.4279 7.96557Z" fill="#0000C8" fill-rule="nonzero" fill-opacity="1" transform="matrix(1 0 0 -1.00004 514.205 86.1775)"/><path d="M0 0 0 32.4619 4.23976 32.4619 4.23976 3.55454 21.2416 3.55454 21.2416 0 0 0Z" fill="#0000C8" fill-rule="nonzero" fill-opacity="1" transform="matrix(1 0 0 -1.00004 557.511 85.1911)"/><path d="M11.049 0C8.12947-0.0613613 5.30697 1.04914 3.21193 3.08345 1.07064 5.18192 0 8.22253 0 12.3338 0 16.4023 1.07064 19.4857 3.21193 21.5413 5.35322 23.597 8.00842 24.6676 11.049 24.6676 13.9479 24.709 16.7415 23.5823 18.8005 21.5413 20.9846 19.4857 22.0552 16.4023 22.0552 12.3338 22.0552 8.26538 20.9846 5.18192 18.8433 3.08345 16.7641 1.0516 13.9556-0.0594624 11.049-1.32736e-07M11.049 3.25475C13.0268 3.20535 14.9015 4.13472 16.0596 5.73865 17.3444 7.40884 17.9868 9.59295 17.9868 12.3338 18.0965 14.6721 17.4178 16.9795 16.0596 18.8861 14.911 20.5063 13.0346 21.4524 11.049 21.4129 9.03681 21.466 7.12864 20.5199 5.95276 18.8861 4.61577 16.9713 3.95293 14.6664 4.06846 12.3338 4.06846 9.59295 4.71084 7.40884 5.95276 5.73865 7.14294 4.12688 9.04623 3.19922 11.049 3.25475Z" fill="#0000C8" fill-rule="nonzero" fill-opacity="1" transform="matrix(1 0 0 -1.00004 581.368 85.841)"/><path d="M6.6808 0 0 23.34 4.06846 23.34 8.17972 8.82211 8.73645 5.35322 9.16472 5.35322 9.84991 8.82211 14.004 23.3829 17.9011 23.3829 22.4835 8.82211 23.2972 5.35322 23.7254 5.35322 24.325 8.86491 28.4363 23.34 32.1193 23.34 25.4385 0 21.4985 0 16.702 15.2459 16.0596 18.672 15.717 18.672 15.0318 15.2459 10.6208 0 6.6808 0Z" fill="#0000C8" fill-rule="nonzero" fill-opacity="1" transform="matrix(1 0 0 -1.00004 606.028 85.1911)"/><path d="M3.8543 0 0 0 0 32.4191 3.8543 32.4191 3.8543 28.3935C4.47624 29.4853 5.28843 30.457 6.25257 31.2628 9.2646 33.4971 13.3502 33.6168 16.4879 31.5625 18.0366 30.5142 19.2311 29.021 19.9139 27.28 20.7542 25.2149 21.1623 22.9995 21.1131 20.7705 21.2313 17.6162 20.3303 14.5077 18.5435 11.9056 16.9077 9.59988 14.2163 8.27839 11.3916 8.39384 10.4327 8.38497 9.47845 8.52956 8.56515 8.82211 7.70472 9.09501 6.905 9.53123 6.20972 10.1069 5.29521 10.9761 4.52857 11.9887 3.93996 13.1047L3.93996 0M3.93996 20.7276C3.8543 18.1153 4.45388 15.9312 5.56734 14.2181 6.606 12.5591 8.45046 11.5797 10.4066 11.6486 12.291 11.6486 13.8327 12.4194 15.1175 13.9184 16.4023 15.4173 17.0018 17.687 17.0018 20.6848 17.0018 24.1965 16.3166 26.5948 15.0318 27.9652 13.8777 29.2317 12.2486 29.9609 10.5351 29.978 9.29043 29.9814 8.07644 29.5917 7.06626 28.8645 5.94067 28.0441 5.10165 26.8905 4.668 25.5669 4.12948 24.0115 3.86856 22.3735 3.89715 20.7276Z" fill="#0000C8" fill-rule="nonzero" fill-opacity="1" transform="matrix(1 0 0 -1.00004 641.559 94.2711)"/><path d="M15.2031 0.642384C14.8378 1.6902 14.6356 2.78792 14.6036 3.89715 13.3729 2.54966 11.8885 1.45818 10.2353 0.685211 9.14328 0.254469 7.98302 0.0224152 6.8093-4.72235e-08 5.04041-0.0434829 3.31756 0.566381 1.96998 1.71303 0.633848 2.90398-0.0905704 4.63629-3.15248e-07 6.42384 0 8.60795 0.942165 10.3638 2.78367 11.563 4.668 12.8477 7.92276 13.8755 12.5051 14.7749L14.6036 15.1603 14.6036 17.8155C14.5608 19.2716 14.1325 20.2566 13.1475 20.8561 12.1054 21.4498 10.9203 21.7461 9.72145 21.7126 8.35198 21.8075 6.99146 21.4296 5.86711 20.642 5.05342 19.9568 4.58234 19.1003 4.58234 18.1581L4.58234 17.8583 0.29978 17.8583 0.29978 18.1581C0.29978 19.1859 0.728038 20.2566 1.58455 21.37 2.48389 22.4407 3.64018 23.2972 5.09626 23.8539 6.55234 24.4107 8.09407 24.7104 9.80711 24.7104 11.5201 24.7104 13.0618 24.4107 14.4751 23.8539 15.6788 23.4579 16.7373 22.7125 17.5157 21.7126 18.1581 20.8561 18.5007 19.1431 18.5007 16.702L18.5007 7.58015 18.5435 4.45388C18.6448 3.15679 18.9036 1.87686 19.3144 0.642388L15.2031 0.642384M14.6036 12.4623 13.4044 12.1625C10.7524 11.6915 8.20223 10.7641 5.86711 9.42165 4.83582 8.71256 4.21305 7.54683 4.19692 6.29538 4.19692 5.6958 4.36823 5.13907 4.71084 4.58234 5.07523 4.06523 5.58068 3.66384 6.16692 3.42606 6.757 3.14972 7.39968 3.00366 8.05122 2.9978 9.12188 2.9978 10.1925 3.29758 11.2632 3.89715 12.2851 4.50977 13.1272 5.38137 13.7042 6.42384 14.3038 7.49449 14.5608 8.69361 14.5608 10.1069L14.5608 12.4623Z" fill="#0000C8" fill-rule="nonzero" fill-opacity="1" transform="matrix(1 0 0 -1.00004 666.863 85.841)"/><path d="M0 6.85211 3.8543 6.85211 3.8543 6.6808C3.8543 5.73865 4.28257 4.88215 5.09626 4.28257 5.8243 3.55454 7.10907 3.25475 8.90776 3.25475 10.5351 3.25475 11.8199 3.64018 12.8477 4.41104 13.8755 5.18192 14.3466 6.12407 14.3466 7.15188 14.3038 8.60795 13.3616 9.6358 11.3916 10.2782L9.42165 10.8349 8.09407 11.2632 5.39603 12.1197C2.31259 13.1903 0.770865 15.0746 0.770865 17.6442 0.770865 19.5285 1.4989 21.1131 2.9978 22.5263 4.49669 23.8967 6.72365 24.6248 9.67861 24.6248 12.5479 24.6676 14.5608 24.0681 15.8455 22.8689 17.0068 21.8522 17.6772 20.3868 17.687 18.8433L13.7899 18.8433 13.7899 18.929C13.7899 19.7427 13.3616 20.3422 12.5908 20.7705 11.6084 21.2569 10.5159 21.4783 9.42165 21.4129 8.1607 21.4846 6.9113 21.1384 5.86711 20.4279 5.06881 19.8899 4.58791 18.9922 4.58234 18.0296 4.58234 17.3016 4.88215 16.7449 5.43888 16.2738 6.25411 15.7067 7.16969 15.2998 8.13688 15.0746L10.0212 14.5179 11.3916 14.1325C12.5848 13.8193 13.7575 13.4331 14.9034 12.9762 15.4009 12.7369 15.8742 12.4501 16.3166 12.1197 16.9492 11.656 17.4508 11.0363 17.7727 10.321 18.8522 7.50457 18.1056 4.31461 15.8883 2.26976 14.3038 0.770865 11.9912 0 8.95057 0 7.30933-0.054513 5.67502 0.237328 4.15411 0.856515 2.97146 1.37507 1.93993 2.18555 1.15629 3.21193 0.394018 4.2229-0.0125227 5.45757 1.09762e-07 6.72365L0 6.85211Z" fill="#0000C8" fill-rule="nonzero" fill-opacity="1" transform="matrix(1 0 0 -1.00004 689.903 85.841)"/><path d="M0 6.85211 3.8543 6.85211 3.8543 6.6808C3.8543 5.73865 4.28257 4.88215 5.09626 4.28257 5.8243 3.55454 7.10907 3.25475 8.90776 3.25475 10.5351 3.25475 11.8199 3.64018 12.8477 4.41104 13.8755 5.18192 14.3466 6.12407 14.3466 7.15188 14.3038 8.60795 13.3616 9.6358 11.3916 10.2782L9.42165 10.8349 8.09407 11.2632 5.39603 12.1197C2.31259 13.1903 0.770865 15.0746 0.770865 17.6442 0.770865 19.5285 1.4989 21.1131 2.9978 22.5263 4.49669 23.8967 6.72365 24.6248 9.67861 24.6248 12.5479 24.6676 14.5608 24.0681 15.8455 22.8689 17.0068 21.8522 17.6772 20.3868 17.687 18.8433L13.7899 18.8433 13.7899 18.929C13.7899 19.7427 13.3616 20.3422 12.5908 20.7705 11.6084 21.2569 10.5159 21.4783 9.42165 21.4129 8.1607 21.4846 6.9113 21.1384 5.86711 20.4279 5.06881 19.8899 4.58791 18.9922 4.58234 18.0296 4.58234 17.3016 4.88215 16.7449 5.43888 16.2738 6.25411 15.7067 7.16969 15.2998 8.13688 15.0746L10.0212 14.5179 11.3916 14.1325C12.5848 13.8193 13.7575 13.4331 14.9034 12.9762 15.4009 12.7369 15.8742 12.4501 16.3166 12.1197 16.9492 11.656 17.4508 11.0363 17.7727 10.321 18.8522 7.50457 18.1056 4.31461 15.8883 2.26976 14.3038 0.770865 11.9912 0 8.95057 0 7.30933-0.054513 5.67502 0.237328 4.15411 0.856515 2.97146 1.37507 1.93993 2.18555 1.15629 3.21193 0.394018 4.2229-0.0125227 5.45757 1.09762e-07 6.72365L0 6.85211Z" fill="#0000C8" fill-rule="nonzero" fill-opacity="1" transform="matrix(1 0 0 -1.00004 711.712 85.841)"/><path d="M953.574 1783.43 797.843 1783.43M1265.04 1783.43 1109.3 1783.43M797.843 1876.87 797.843 1783.43M1265.04 1876.87 1265.04 1783.43M797.843 2094.89 797.843 2032.6M1265.04 2094.89 1265.04 2001.45" stroke="#0000FF" stroke-width="4.74122" stroke-linecap="butt" stroke-linejoin="miter" stroke-miterlimit="10" stroke-opacity="1" fill="none" fill-rule="nonzero" transform="matrix(1 0 0 1.00004 -420.547 -1528.02)"/></g></g><path d="M520.903 328.819 523.204 328.819 523.204 348.272 520.606 348.272 520.606 331.997C520.338 332.363 519.961 332.717 519.47 333.058 518.979 333.4 518.396 333.704 517.726 333.972 517.052 334.239 516.3 334.432 515.469 334.55L515.469 332.204C516.289 332.066 517.055 331.813 517.762 331.447 518.47 331.081 519.093 330.66 519.631 330.185 520.173 329.709 520.595 329.254 520.903 328.819Z" stroke="#0000FF" stroke-width="1.09924" stroke-linecap="butt" stroke-linejoin="round" stroke-miterlimit="10" stroke-opacity="1" fill="#0000FF" fill-rule="evenodd" fill-opacity="1" transform="matrix(1 0 0 1.00031 -182.924 -107.392)"/><path d="M1041.53 339.115C1041.53 325.556 1052.76 314.565 1066.63 314.565 1080.49 314.565 1091.73 325.556 1091.73 339.115 1091.73 352.673 1080.49 363.664 1066.63 363.664 1052.76 363.664 1041.53 352.673 1041.53 339.115Z" stroke="#0000FF" stroke-width="2.51908" stroke-linecap="butt" stroke-linejoin="miter" stroke-miterlimit="8" stroke-opacity="1" fill="none" fill-rule="evenodd" transform="matrix(1 0 0 1.00031 -182.924 -107.392)"/><path d="M1066.56 328.64C1067.85 328.64 1068.94 328.871 1069.84 329.331 1070.74 329.791 1071.43 330.437 1071.89 331.269 1072.37 332.1 1072.6 333.08 1072.6 334.209 1072.6 335.219 1072.41 336.14 1072.02 336.971 1071.62 337.803 1071.1 338.585 1070.43 339.318 1069.77 340.05 1069.04 340.778 1068.23 341.5L1063.14 346.074 1073.17 346.074 1073.17 348.272 1059.76 348.272 1059.76 346.312 1066.63 340.03C1067.82 338.951 1068.68 337.971 1069.22 337.09 1069.75 336.209 1070.02 335.283 1070.02 334.313 1070.02 333.303 1069.75 332.474 1069.21 331.826 1068.67 331.177 1067.78 330.853 1066.56 330.853 1065.17 330.853 1064.18 331.212 1063.58 331.93 1062.98 332.647 1062.68 333.551 1062.68 334.64L1060.2 334.64C1060.2 333.432 1060.44 332.378 1060.91 331.477 1061.38 330.576 1062.09 329.878 1063.03 329.383 1063.98 328.888 1065.15 328.64 1066.56 328.64Z" stroke="#0000FF" stroke-width="1.09924" stroke-linecap="butt" stroke-linejoin="round" stroke-miterlimit="10" stroke-opacity="1" fill="#0000FF" fill-rule="evenodd" fill-opacity="1" transform="matrix(1 0 0 1.00031 -182.924 -107.392)"/><path d="M768.916 727.511C768.916 713.954 780.154 702.962 794.015 702.962 807.877 702.962 819.115 713.954 819.115 727.511 819.115 741.069 807.877 752.061 794.015 752.061 780.154 752.061 768.916 741.069 768.916 727.511Z" stroke="#0000FF" stroke-width="2.51908" stroke-linecap="butt" stroke-linejoin="miter" stroke-miterlimit="8" stroke-opacity="1" fill="none" fill-rule="evenodd" transform="matrix(1 0 0 1.00031 -182.924 -107.392)"/><path d="M793.935 720.033C793.11 720.033 792.436 720.256 791.908 720.704 791.377 721.147 790.963 721.744 790.666 722.492 790.37 723.239 790.164 724.075 790.051 725.002 789.937 725.925 789.878 726.87 789.878 727.83 789.878 728.779 789.937 729.717 790.051 730.644 790.164 731.568 790.37 732.407 790.666 733.154 790.963 733.902 791.377 734.499 791.908 734.942 792.436 735.389 793.11 735.609 793.935 735.609 794.755 735.609 795.43 735.389 795.954 734.942 796.478 734.499 796.888 733.902 797.177 733.154 797.471 732.407 797.672 731.568 797.786 730.644 797.899 729.717 797.958 728.779 797.958 727.83 797.958 726.87 797.899 725.925 797.786 725.002 797.672 724.075 797.471 723.239 797.177 722.492 796.888 721.744 796.478 721.147 795.954 720.704 795.43 720.256 794.755 720.033 793.935 720.033ZM793.935 717.864C795.18 717.864 796.232 718.117 797.089 718.622 797.947 719.128 798.632 719.839 799.145 720.755 799.662 721.671 800.035 722.73 800.266 723.932 800.501 725.133 800.614 726.434 800.614 727.83 800.614 729.226 800.501 730.523 800.266 731.729 800.035 732.931 799.662 733.986 799.145 734.891 798.632 735.796 797.947 736.503 797.089 737.013 796.232 737.526 795.18 737.778 793.935 737.778 792.685 737.778 791.634 737.526 790.78 737.013 789.922 736.503 789.234 735.796 788.713 734.891 788.193 733.986 787.819 732.934 787.585 731.736 787.354 730.538 787.237 729.245 787.237 727.86 787.237 726.453 787.354 725.148 787.585 723.939 787.819 722.73 788.193 721.671 788.713 720.762 789.234 719.85 789.922 719.139 790.78 718.63 791.634 718.12 792.685 717.864 793.935 717.864Z" stroke="#0000FF" stroke-width="1.09924" stroke-linecap="butt" stroke-linejoin="round" stroke-miterlimit="10" stroke-opacity="1" fill="#0000FF" fill-rule="evenodd" fill-opacity="1" transform="matrix(1 0 0 1.00031 -182.924 -107.392)"/></g></g></g></g></g></g></g></svg>